#!OML:ASF F:\VICON\USERDATA\INSTALL\rory3\rory3.ASF
:FULLY-SPECIFIED
:DEGREES
1453
root 3.31744 18.592 8.18152 -185.038 -4.28525 177.527
lowerback 16.6536 3.15538 -0.0998768
upperback 3.54451 3.5628 -1.39118
thorax -5.44347 1.5289 -2.14267
lowerneck -8.03175 -0.55924 -6.24366
upperneck -1.11283 -0.421883 5.89067
head 1.08113 -0.158762 2.98887
rclavicle -1.27533e-014 -4.67144e-015
rhumerus -32.8146 15.7286 -79.974
rradius 70.7705
rwrist 0.877775
rhand -25.6086 -0.878787
rfingers 7.12502
rthumb 0.92379 -30.8565
lclavicle -1.27533e-014 -4.67144e-015
lhumerus -48.7045 25.5549 58.1218
lradius 14.5039
lwrist -9.59514
lhand -17.3085 24.9437
lfingers 7.12502
lthumb 8.93766 54.7344
rfemur -4.54136 15.2862 24.5128
rtibia 30.3212
rfoot -20.1716 -8.92009
rtoes 7.79441
lfemur -50.4307 13.1399 -17.9204
ltibia 84.8112
lfoot -14.4792 0.557831
ltoes -14.6654
1454
root 3.31363 18.5983 8.17348 -185.038 -4.19466 177.476
lowerback 16.5121 3.13865 -0.160873
upperback 3.45582 3.5467 -1.38567
thorax -5.46646 1.52789 -2.09506
lowerneck -8.05944 -0.495784 -6.16683
upperneck -0.8719 -0.336964 5.74136
head 1.15657 -0.114669 2.92839
rclavicle -2.75193e-015 1.97791e-014
rhumerus -33.5607 15.7571 -80.4086
rradius 69.3762
rwrist 0.929169
rhand -25.6832 -0.433783
rfingers 7.12502
rthumb 0.851687 -30.4118
lclavicle -2.75193e-015 1.97791e-014
lhumerus -49.2621 25.949 57.4889
lradius 14.5904
lwrist -9.86564
lhand -17.03 25.4662
lfingers 7.12502
lthumb 9.2064 55.2453
rfemur -4.44026 15.4116 24.4681
rtibia 30.2036
rfoot -20.1437 -8.96992
rtoes 7.85482
lfemur -48.9711 13.1976 -17.8037
ltibia 83.7522
lfoot -13.9404 0.93254
ltoes -13.2599
1455
root 3.30644 18.6 8.16359 -185.073 -4.13773 177.598
lowerback 16.3602 3.07709 -0.0270407
upperback 3.37577 3.5084 -1.34701
thorax -5.46494 1.51439 -2.11657
lowerneck -8.05531 -0.44907 -6.04696
upperneck -0.673279 -0.280818 5.61748
head 1.2146 -0.085798 2.86712
rclavicle 2.95009e-014 -6.55989e-015
rhumerus -34.2213 15.8455 -80.8421
rradius 67.9903
rwrist 0.661762
rhand -25.6978 -0.209026
rfingers 7.12502
rthumb 0.837664 -30.1871
lclavicle 2.95009e-014 -6.55989e-015
lhumerus -49.9451 26.5378 56.5873
lradius 14.7113
lwrist -10.2204
lhand -16.9308 25.0798
lfingers 7.12502
lthumb 9.30207 54.8545
rfemur -4.30337 15.4037 24.5971
rtibia 30.0862
rfoot -20.16 -8.94743
rtoes 7.72914
lfemur -47.4775 13.2241 -17.5078
ltibia 82.6625
lfoot -13.3892 1.1316
ltoes -12.3843
1456
root 3.30292 18.6007 8.15635 -185.036 -4.09492 177.737
lowerback 16.1278 3.0563 0.108627
upperback 3.30475 3.52517 -1.31394
thorax -5.40787 1.52896 -2.1516
lowerneck -8.01557 -0.455526 -6.03143
upperneck -0.508904 -0.290295 5.61092
head 1.26147 -0.0884328 2.86291
rclavicle -4.59441e-014 1.54555e-014
rhumerus -34.8025 15.5584 -81.1951
rradius 66.5873
rwrist 0.553709
rhand -25.7902 -0.192218
rfingers 7.12502
rthumb 0.748333 -30.1706
lclavicle -4.59441e-014 1.54555e-014
lhumerus -50.2913 26.6679 56.2012
lradius 14.8366
lwrist -10.1982
lhand -16.9062 24.707
lfingers 7.12502
lthumb 9.32582 54.4807
rfemur -4.25328 15.4459 24.7465
rtibia 29.9612
rfoot -20.1702 -8.98759
rtoes 7.79707
lfemur -46.0651 13.2627 -17.2353
ltibia 81.5019
lfoot -12.6591 1.30857
ltoes -11.652
1457
root 3.30274 18.6 8.15141 -184.962 -4.11302 177.965
lowerback 15.9626 2.98738 0.24541
upperback 3.19794 3.48397 -1.23029
thorax -5.4303 1.51562 -2.12731
lowerneck -8.09616 -0.433016 -6.06208
upperneck -0.296069 -0.254443 5.64634
head 1.34351 -0.0668009 2.88495
rclavicle -1.31074e-014 -1.48592e-014
rhumerus -35.3554 15.1424 -81.5066
rradius 65.2238
rwrist 0.857238
rhand -25.5555 -0.386567
rfingers 7.12502
rthumb 0.975038 -30.3641
lclavicle -1.31074e-014 -1.48592e-014
lhumerus -50.6207 26.7574 55.892
lradius 14.98
lwrist -9.95272
lhand -16.8279 24.3443
lfingers 7.12502
lthumb 9.40144 54.1147
rfemur -4.25556 15.4872 24.9961
rtibia 29.8295
rfoot -20.128 -9.07072
rtoes 7.92808
lfemur -44.7353 13.3018 -16.9018
ltibia 80.2852
lfoot -11.9061 1.6574
ltoes -11.7269
1458
root 3.2997 18.6027 8.14405 -184.876 -4.11077 178.139
lowerback 15.7749 2.94123 0.323433
upperback 3.07823 3.46442 -1.14226
thorax -5.4573 1.51417 -2.06911
lowerneck -8.14605 -0.407892 -6.00875
upperneck -0.0808432 -0.220228 5.56106
head 1.4192 -0.0481157 2.84972
rclavicle 4.72114e-015 3.40419e-015
rhumerus -35.8452 14.8127 -81.705
rradius 63.8033
rwrist 1.33834
rhand -25.0043 -0.584957
rfingers 7.12502
rthumb 1.50743 -30.5594
lclavicle 4.72114e-015 3.40419e-015
lhumerus -51.0102 26.9775 55.4245
lradius 15.1706
lwrist -9.57584
lhand -16.4984 24.4965
lfingers 7.12502
lthumb 9.71929 54.2522
rfemur -4.26699 15.4496 25.1425
rtibia 29.7092
rfoot -20.0917 -8.99391
rtoes 7.96365
lfemur -43.3417 13.3112 -16.626
ltibia 78.9734
lfoot -11.3053 2.0556
ltoes -11.4041
1459
root 3.29308 18.6108 8.13164 -184.823 -4.09923 178.129
lowerback 15.5396 2.92017 0.305487
upperback 2.98425 3.45194 -1.14199
thorax -5.43098 1.51596 -2.04748
lowerneck -8.06937 -0.391188 -5.92094
upperneck 0.0749306 -0.205334 5.48526
head 1.45396 -0.0402759 2.80886
rclavicle 6.80527e-014 -1.96797e-014
rhumerus -36.3374 14.4861 -81.9306
rradius 62.3719
rwrist 1.7041
rhand -24.563 -0.906333
rfingers 7.12502
rthumb 1.93363 -30.8773
lclavicle 6.80527e-014 -1.96797e-014
lhumerus -51.1962 26.7082 55.449
lradius 15.4127
lwrist -8.97207
lhand -16.5734 24.7151
lfingers 7.12502
lthumb 9.64698 54.4742
rfemur -4.22219 15.4279 25.0865
rtibia 29.5978
rfoot -20.077 -8.92999
rtoes 7.93512
lfemur -41.8277 13.315 -16.5672
ltibia 77.5743
lfoot -10.7028 2.24263
ltoes -11.0948
1460
root 3.28507 18.6158 8.11539 -184.8 -4.08804 178.113
lowerback 15.238 2.89074 0.280957
upperback 2.9572 3.42184 -1.1404
thorax -5.29844 1.50817 -2.01131
lowerneck -8.03585 -0.357168 -5.88418
upperneck 0.18225 -0.16534 5.51339
head 1.48053 -0.0187087 2.8139
rclavicle 1.16289e-014 -1.33186e-014
rhumerus -36.7553 14.1862 -82.1399
rradius 60.9953
rwrist 1.99255
rhand -24.2743 -0.732382
rfingers 7.12502
rthumb 2.21244 -30.7007
lclavicle 1.16289e-014 -1.33186e-014
lhumerus -51.2308 26.5408 55.522
lradius 15.5513
lwrist -8.65442
lhand -16.733 24.8395
lfingers 7.12502
lthumb 9.49293 54.6056
rfemur -4.16032 15.4098 25.035
rtibia 29.5417
rfoot -20.0485 -8.88484
rtoes 7.92341
lfemur -40.2403 13.3116 -16.5399
ltibia 76.1169
lfoot -10.121 2.32167
ltoes -10.8446
1461
root 3.27624 18.6137 8.0993 -184.728 -4.13129 178.196
lowerback 14.907 2.8482 0.351076
upperback 2.88868 3.39734 -1.11388
thorax -5.18912 1.50419 -2.00347
lowerneck -7.95193 -0.320073 -5.85058
upperneck 0.277512 -0.121397 5.51274
head 1.49362 0.00403118 2.80927
rclavicle 3.75144e-014 -8.19987e-015
rhumerus -37.1817 13.8967 -82.3262
rradius 59.5954
rwrist 2.2297
rhand -24.3961 -0.181036
rfingers 7.12502
rthumb 2.09484 -30.1505
lclavicle 3.75144e-014 -8.19987e-015
lhumerus -51.2532 26.4881 55.43
lradius 15.5666
lwrist -8.50562
lhand -16.7129 24.4444
lfingers 7.12502
lthumb 9.51238 54.2097
rfemur -4.17251 15.3788 25.092
rtibia 29.5259
rfoot -20.0581 -8.87404
rtoes 7.84515
lfemur -38.7326 13.2344 -16.4954
ltibia 74.6664
lfoot -9.71916 2.6971
ltoes -11.6649
1462
root 3.26835 18.607 8.088 -184.672 -4.19306 178.196
lowerback 14.7146 2.80686 0.324308
upperback 2.76596 3.35786 -1.10937
thorax -5.21745 1.49254 -1.97098
lowerneck -7.94104 -0.30471 -5.71949
upperneck 0.547889 -0.107317 5.35842
head 1.57672 0.0115503 2.73565
rclavicle 2.34193e-014 -1.2424e-015
rhumerus -37.5657 13.5855 -82.4777
rradius 58.0847
rwrist 2.5704
rhand -24.1808 0.104443
rfingers 7.12502
rthumb 2.30275 -29.8629
lclavicle 2.34193e-014 -1.2424e-015
lhumerus -51.2975 26.4163 55.3245
lradius 15.5734
lwrist -8.32957
lhand -16.589 23.9976
lfingers 7.12502
lthumb 9.63194 53.7574
rfemur -4.16847 15.3361 25.0711
rtibia 29.5279
rfoot -20.051 -8.8958
rtoes 7.71727
lfemur -37.2114 13.1574 -16.5551
ltibia 73.2002
lfoot -9.3465 3.16404
ltoes -12.3545
1463
root 3.26169 18.601 8.07607 -184.654 -4.26162 178.273
lowerback 14.5575 2.76156 0.329542
upperback 2.68373 3.31729 -1.047
thorax -5.22356 1.47878 -1.89586
lowerneck -7.96161 -0.288365 -5.74244
upperneck 0.725041 -0.0805027 5.32046
head 1.63664 0.0261711 2.73044
rclavicle -3.27218e-014 1.36416e-014
rhumerus -37.8396 13.2521 -82.5249
rradius 56.6197
rwrist 3.03654
rhand -23.9913 -0.163984
rfingers 7.12502
rthumb 2.4858 -30.1292
lclavicle -3.27218e-014 1.36416e-014
lhumerus -51.2697 26.3559 55.4076
lradius 15.7193
lwrist -8.21531
lhand -16.5833 24.3556
lfingers 7.12502
lthumb 9.63745 54.1151
rfemur -4.13158 15.2973 25.1488
rtibia 29.5281
rfoot -20.0798 -8.99943
rtoes 7.38356
lfemur -35.7073 13.1248 -16.4806
ltibia 71.725
lfoot -9.06823 3.40149
ltoes -12.8847
1464
root 3.25315 18.599 8.06016 -184.612 -4.43538 178.526
lowerback 14.3372 2.6611 0.541082
upperback 2.57792 3.2426 -0.950512
thorax -5.21097 1.44777 -1.89248
lowerneck -7.86685 -0.274367 -5.86596
upperneck 0.827936 -0.058224 5.45774
head 1.65426 0.0400977 2.80165
rclavicle -1.62258e-014 -4.39811e-015
rhumerus -38.2321 12.8336 -82.5725
rradius 55.2187
rwrist 3.64808
rhand -24.0628 -0.0250422
rfingers 7.12502
rthumb 2.41674 -29.9911
lclavicle -1.62258e-014 -4.39811e-015
lhumerus -51.1719 26.1272 55.6188
lradius 15.8797
lwrist -7.93351
lhand -16.7065 24.9737
lfingers 7.12502
lthumb 9.51858 54.7387
rfemur -4.12853 15.2022 25.3989
rtibia 29.5469
rfoot -20.1549 -9.12924
rtoes 7.3462
lfemur -34.272 13.0866 -16.2523
ltibia 70.2258
lfoot -8.74615 3.47752
ltoes -14.1856
